<svg xmlns="http://www.w3.org/2000/svg" viewBox="0 0 720 300" width="720" height="300" role="img" aria-label="Gurudev Family 910 — medical office concept rendering">
  <defs>
    <linearGradient id="sky3" x1="0" y1="0" x2="0" y2="1">
      <stop offset="0" stop-color="#eef3f8"/>
      <stop offset="1" stop-color="#d7e2ee"/>
    </linearGradient>
    <linearGradient id="ground3" x1="0" y1="0" x2="0" y2="1">
      <stop offset="0" stop-color="#c7d4e2"/>
      <stop offset="1" stop-color="#aebfd1"/>
    </linearGradient>
  </defs>
  <rect width="720" height="300" fill="url(#sky3)"/>
  <g stroke="#9fb2c7" stroke-width="1" opacity="0.35">
    <path d="M0 60 H720 M0 120 H720 M0 180 H720 M0 240 H720"/>
    <path d="M120 0 V300 M240 0 V300 M360 0 V300 M480 0 V300 M600 0 V300"/>
  </g>
  <rect y="248" width="720" height="52" fill="url(#ground3)"/>
  <g fill="#ffffff" stroke="#334e68" stroke-width="3.5" stroke-linejoin="round" stroke-linecap="round">
    <!-- taller tower -->
    <rect x="300" y="86" width="150" height="162"/>
    <!-- lower wing -->
    <rect x="438" y="146" width="116" height="102"/>
    <rect x="196" y="160" width="106" height="88"/>
    <!-- entrance canopy -->
    <rect x="338" y="214" width="74" height="34" fill="#cdd9e7"/>
    <path d="M324 214 H426" stroke="#2f855a" stroke-width="6"/>
  </g>
  <!-- window grid on tower -->
  <g fill="#eaf1f8" stroke="#9fb2c7" stroke-width="1.5">
    <rect x="316" y="100" width="26" height="22"/><rect x="356" y="100" width="26" height="22"/><rect x="396" y="100" width="26" height="22"/>
    <rect x="316" y="134" width="26" height="22"/><rect x="356" y="134" width="26" height="22"/><rect x="396" y="134" width="26" height="22"/>
    <rect x="316" y="168" width="26" height="22"/><rect x="356" y="168" width="26" height="22"/><rect x="396" y="168" width="26" height="22"/>
  </g>
  <g fill="#eaf1f8" stroke="#9fb2c7" stroke-width="1.5">
    <rect x="452" y="162" width="30" height="24"/><rect x="496" y="162" width="30" height="24"/>
    <rect x="452" y="200" width="30" height="24"/><rect x="496" y="200" width="30" height="24"/>
    <rect x="212" y="176" width="32" height="26"/><rect x="256" y="176" width="32" height="26"/>
  </g>
  <!-- medical cross -->
  <g transform="translate(375,66)">
    <rect x="-9" y="-22" width="18" height="44" rx="2" fill="#2f855a"/>
    <rect x="-22" y="-9" width="44" height="18" rx="2" fill="#2f855a"/>
  </g>
  <g font-family="'Segoe UI', Arial, sans-serif">
    <rect x="24" y="24" width="92" height="24" rx="12" fill="#334e68"/>
    <text x="70" y="40" fill="#ffffff" font-size="12" font-weight="700" letter-spacing="1.5" text-anchor="middle">GREENS</text>
    <rect x="24" y="252" width="244" height="26" rx="13" fill="#ffffff" opacity="0.92"/>
    <text x="38" y="269" fill="#334e68" font-size="11.5" font-weight="600" letter-spacing="0.5">Concept rendering · Medical / Office</text>
  </g>
</svg>
