<svg xmlns="http://www.w3.org/2000/svg" viewBox="0 0 720 300" width="720" height="300" role="img" aria-label="RJK Residence — concept rendering">
  <defs>
    <linearGradient id="sky" x1="0" y1="0" x2="0" y2="1">
      <stop offset="0" stop-color="#eef3f8"/>
      <stop offset="1" stop-color="#d7e2ee"/>
    </linearGradient>
    <linearGradient id="ground" x1="0" y1="0" x2="0" y2="1">
      <stop offset="0" stop-color="#c7d4e2"/>
      <stop offset="1" stop-color="#aebfd1"/>
    </linearGradient>
  </defs>
  <rect width="720" height="300" fill="url(#sky)"/>
  <g stroke="#9fb2c7" stroke-width="1" opacity="0.35">
    <path d="M0 60 H720 M0 120 H720 M0 180 H720 M0 240 H720"/>
    <path d="M120 0 V300 M240 0 V300 M360 0 V300 M480 0 V300 M600 0 V300"/>
  </g>
  <rect y="248" width="720" height="52" fill="url(#ground)"/>
  <g fill="none" stroke="#2f855a" stroke-width="3" stroke-linecap="round" stroke-linejoin="round" opacity="0.85">
    <circle cx="585" cy="205" r="26"/><path d="M585 231 V248"/>
    <circle cx="135" cy="208" r="22"/><path d="M135 230 V248"/>
  </g>
  <g fill="#ffffff" stroke="#334e68" stroke-width="3.5" stroke-linejoin="round" stroke-linecap="round">
    <rect x="262" y="150" width="196" height="98"/>
    <path d="M244 152 L360 78 L476 152 Z" fill="#dbe6f1"/>
    <rect x="418" y="98" width="20" height="38" fill="#cdd9e7"/>
    <rect x="340" y="186" width="40" height="62" fill="#cdd9e7"/>
    <rect x="290" y="172" width="38" height="34" fill="#eaf1f8"/>
    <rect x="392" y="172" width="38" height="34" fill="#eaf1f8"/>
    <path d="M290 189 H328 M309 172 V206 M392 189 H430 M411 172 V206" stroke-width="2"/>
  </g>
  <g font-family="'Segoe UI', Arial, sans-serif">
    <rect x="24" y="24" width="92" height="24" rx="12" fill="#334e68"/>
    <text x="70" y="40" fill="#ffffff" font-size="12" font-weight="700" letter-spacing="1.5" text-anchor="middle">GREENS</text>
    <rect x="24" y="252" width="186" height="26" rx="13" fill="#ffffff" opacity="0.92"/>
    <text x="38" y="269" fill="#334e68" font-size="11.5" font-weight="600" letter-spacing="0.5">Concept rendering · Residence</text>
  </g>
</svg>
